<svg width="309" height="404" viewBox="0 0 309 404" fill="none" xmlns="http://www.w3.org/2000/svg">
<rect width="195" height="94" fill="#E0F0FF"/>
<path d="M22.096 63.24C20.88 63.24 19.904 62.888 19.168 62.184C18.432 61.448 18.064 60.552 18.064 59.496C18.064 58.44 18.432 57.56 19.168 56.856C19.904 56.12 20.88 55.752 22.096 55.752C23.248 55.752 24.192 56.12 24.928 56.856C25.664 57.56 26.032 58.44 26.032 59.496C26.032 60.552 25.664 61.448 24.928 62.184C24.192 62.888 23.248 63.24 22.096 63.24ZM34.1898 63.24C32.9738 63.24 31.9978 62.888 31.2617 62.184C30.5258 61.448 30.1578 60.552 30.1578 59.496C30.1578 58.44 30.5258 57.56 31.2617 56.856C31.9978 56.12 32.9738 55.752 34.1898 55.752C35.3418 55.752 36.2858 56.12 37.0218 56.856C37.7578 57.56 38.1258 58.44 38.1258 59.496C38.1258 60.552 37.7578 61.448 37.0218 62.184C36.2858 62.888 35.3418 63.24 34.1898 63.24ZM46.2835 63.24C45.0675 63.24 44.0915 62.888 43.3555 62.184C42.6195 61.448 42.2515 60.552 42.2515 59.496C42.2515 58.44 42.6195 57.56 43.3555 56.856C44.0915 56.12 45.0675 55.752 46.2835 55.752C47.4355 55.752 48.3795 56.12 49.1155 56.856C49.8515 57.56 50.2195 58.44 50.2195 59.496C50.2195 60.552 49.8515 61.448 49.1155 62.184C48.3795 62.888 47.4355 63.24 46.2835 63.24ZM74.7141 63V34.632H64.8741V29.4H90.9381V34.632H81.1461V63H74.7141ZM95.3867 63V28.44H101.867V42.408C102.667 41.128 103.723 40.12 105.035 39.384C106.379 38.616 107.931 38.232 109.691 38.232C111.707 38.232 113.403 38.664 114.779 39.528C116.155 40.36 117.195 41.576 117.899 43.176C118.603 44.776 118.955 46.76 118.955 49.128V63H112.523V49.704C112.523 47.784 112.123 46.312 111.323 45.288C110.523 44.232 109.259 43.704 107.531 43.704C106.475 43.704 105.515 43.96 104.651 44.472C103.787 44.984 103.099 45.736 102.587 46.728C102.107 47.688 101.867 48.84 101.867 50.184V63H95.3867ZM136.675 63.576C134.243 63.576 132.083 63.064 130.195 62.04C128.339 60.984 126.883 59.528 125.827 57.672C124.803 55.784 124.291 53.608 124.291 51.144C124.291 48.616 124.803 46.392 125.827 44.472C126.883 42.52 128.339 41 130.195 39.912C132.051 38.792 134.211 38.232 136.675 38.232C139.075 38.232 141.171 38.76 142.963 39.816C144.755 40.872 146.147 42.296 147.139 44.088C148.131 45.88 148.627 47.912 148.627 50.184C148.627 50.504 148.627 50.872 148.627 51.288C148.627 51.672 148.595 52.072 148.531 52.488H128.899V48.552H142.099C142.003 46.984 141.443 45.752 140.419 44.856C139.427 43.96 138.179 43.512 136.675 43.512C135.587 43.512 134.579 43.768 133.651 44.28C132.723 44.76 131.987 45.512 131.443 46.536C130.931 47.56 130.675 48.856 130.675 50.424V51.816C130.675 53.128 130.915 54.28 131.395 55.272C131.907 56.232 132.611 56.984 133.507 57.528C134.403 58.04 135.443 58.296 136.627 58.296C137.811 58.296 138.787 58.04 139.555 57.528C140.355 57.016 140.947 56.36 141.331 55.56H147.955C147.507 57.064 146.755 58.424 145.699 59.64C144.643 60.856 143.347 61.816 141.811 62.52C140.275 63.224 138.563 63.576 136.675 63.576ZM155.834 73.56L161.69 60.312H160.25L150.554 38.808H157.61L164.522 54.408L170.762 38.808H177.626L162.698 73.56H155.834Z" fill="black"/>
<rect width="174" height="94" transform="translate(127 94)" fill="#E0F0FF"/>
<path d="M146.312 157V123.4H157.544C161.448 123.4 164.664 124.104 167.192 125.512C169.752 126.888 171.64 128.84 172.856 131.368C174.104 133.864 174.728 136.808 174.728 140.2C174.728 143.592 174.104 146.552 172.856 149.08C171.64 151.576 169.768 153.528 167.24 154.936C164.712 156.312 161.48 157 157.544 157H146.312ZM152.792 151.432H157.208C159.96 151.432 162.12 150.984 163.688 150.088C165.288 149.192 166.424 147.912 167.096 146.248C167.768 144.552 168.104 142.536 168.104 140.2C168.104 137.832 167.768 135.816 167.096 134.152C166.424 132.456 165.288 131.16 163.688 130.264C162.12 129.368 159.96 128.92 157.208 128.92H152.792V151.432ZM180.25 157V132.808H186.73V157H180.25ZM183.514 129.496C182.362 129.496 181.402 129.16 180.634 128.488C179.898 127.784 179.53 126.904 179.53 125.848C179.53 124.792 179.898 123.928 180.634 123.256C181.402 122.552 182.362 122.2 183.514 122.2C184.698 122.2 185.658 122.552 186.394 123.256C187.162 123.928 187.546 124.792 187.546 125.848C187.546 126.904 187.162 127.784 186.394 128.488C185.658 129.16 184.698 129.496 183.514 129.496ZM204.029 157.576C201.821 157.576 199.837 157.032 198.077 155.944C196.349 154.856 194.989 153.352 193.997 151.432C193.005 149.512 192.509 147.352 192.509 144.952C192.509 142.488 193.005 140.312 193.997 138.424C195.021 136.504 196.413 135 198.173 133.912C199.965 132.792 201.965 132.232 204.173 132.232C205.901 132.232 207.421 132.552 208.733 133.192C210.045 133.832 211.101 134.744 211.901 135.928V122.44H218.381V157H212.621L211.901 153.688C211.421 154.36 210.813 155 210.077 155.608C209.373 156.216 208.525 156.696 207.533 157.048C206.541 157.4 205.373 157.576 204.029 157.576ZM205.565 151.912C206.845 151.912 207.965 151.624 208.925 151.048C209.917 150.44 210.685 149.608 211.229 148.552C211.773 147.496 212.045 146.28 212.045 144.904C212.045 143.528 211.773 142.312 211.229 141.256C210.685 140.2 209.917 139.384 208.925 138.808C207.965 138.2 206.845 137.896 205.565 137.896C204.349 137.896 203.245 138.2 202.253 138.808C201.261 139.384 200.477 140.2 199.901 141.256C199.357 142.312 199.085 143.512 199.085 144.856C199.085 146.264 199.357 147.496 199.901 148.552C200.477 149.608 201.245 150.44 202.205 151.048C203.197 151.624 204.317 151.912 205.565 151.912ZM224.73 157V132.808H230.443L230.923 136.744C231.659 135.4 232.699 134.312 234.043 133.48C235.419 132.648 237.051 132.232 238.939 132.232C240.955 132.232 242.651 132.648 244.027 133.48C245.403 134.312 246.443 135.528 247.147 137.128C247.883 138.728 248.251 140.696 248.251 143.032V157H241.819V143.656C241.819 141.736 241.403 140.264 240.571 139.24C239.771 138.216 238.523 137.704 236.827 137.704C235.739 137.704 234.763 137.96 233.898 138.472C233.067 138.984 232.411 139.72 231.931 140.68C231.451 141.608 231.211 142.744 231.211 144.088V157H224.73ZM261.988 123.4L257.044 135.688H252.628L255.22 123.4H261.988ZM277.486 157C275.79 157 274.302 156.744 273.022 156.232C271.774 155.688 270.798 154.808 270.094 153.592C269.39 152.344 269.038 150.648 269.038 148.504V138.232H264.91V132.808H269.038L269.758 126.232H275.518V132.808H281.902V138.232H275.518V148.6C275.518 149.688 275.758 150.44 276.238 150.856C276.718 151.272 277.534 151.48 278.686 151.48H281.854V157H277.486Z" fill="black"/>
<rect width="163" height="94" transform="translate(0 188)" fill="#E0F0FF"/>
<path d="M26.08 251L17.248 217.4H24.16L30.016 243.656L36.928 217.4H44.08L50.8 243.656L56.704 217.4H63.664L54.592 251H46.864L40.432 226.52L33.76 251H26.08ZM67.6836 251V226.808H73.4436L74.0676 231.272C74.6436 230.216 75.3636 229.32 76.2276 228.584C77.1236 227.848 78.1316 227.272 79.2516 226.856C80.4036 226.44 81.6676 226.232 83.0436 226.232V233.096H80.8356C79.8756 233.096 78.9796 233.208 78.1476 233.432C77.3476 233.656 76.6436 234.024 76.0356 234.536C75.4276 235.016 74.9636 235.688 74.6436 236.552C74.3236 237.416 74.1636 238.504 74.1636 239.816V251H67.6836ZM87.4683 251V226.808H93.9483V251H87.4683ZM90.7323 223.496C89.5803 223.496 88.6203 223.16 87.8523 222.488C87.1163 221.784 86.7483 220.904 86.7483 219.848C86.7483 218.792 87.1163 217.928 87.8523 217.256C88.6203 216.552 89.5803 216.2 90.7323 216.2C91.9163 216.2 92.8763 216.552 93.6123 217.256C94.3803 217.928 94.7643 218.792 94.7643 219.848C94.7643 220.904 94.3803 221.784 93.6123 222.488C92.8763 223.16 91.9163 223.496 90.7323 223.496ZM111.392 251C109.696 251 108.208 250.744 106.928 250.232C105.68 249.688 104.704 248.808 104 247.592C103.296 246.344 102.944 244.648 102.944 242.504V232.232H98.8161V226.808H102.944L103.664 220.232H109.424V226.808H115.808V232.232H109.424V242.6C109.424 243.688 109.664 244.44 110.144 244.856C110.624 245.272 111.44 245.48 112.592 245.48H115.76V251H111.392ZM132.268 251.576C129.836 251.576 127.676 251.064 125.788 250.04C123.932 248.984 122.476 247.528 121.42 245.672C120.396 243.784 119.884 241.608 119.884 239.144C119.884 236.616 120.396 234.392 121.42 232.472C122.476 230.52 123.932 229 125.788 227.912C127.644 226.792 129.804 226.232 132.268 226.232C134.668 226.232 136.764 226.76 138.556 227.816C140.348 228.872 141.74 230.296 142.732 232.088C143.724 233.88 144.22 235.912 144.22 238.184C144.22 238.504 144.22 238.872 144.22 239.288C144.22 239.672 144.188 240.072 144.124 240.488H124.492V236.552H137.692C137.596 234.984 137.036 233.752 136.012 232.856C135.02 231.96 133.772 231.512 132.268 231.512C131.18 231.512 130.172 231.768 129.244 232.28C128.316 232.76 127.58 233.512 127.036 234.536C126.524 235.56 126.268 236.856 126.268 238.424V239.816C126.268 241.128 126.508 242.28 126.988 243.272C127.5 244.232 128.204 244.984 129.1 245.528C129.996 246.04 131.036 246.296 132.22 246.296C133.404 246.296 134.38 246.04 135.148 245.528C135.948 245.016 136.54 244.36 136.924 243.56H143.548C143.1 245.064 142.348 246.424 141.292 247.64C140.236 248.856 138.94 249.816 137.404 250.52C135.868 251.224 134.156 251.576 132.268 251.576Z" fill="black"/>
<rect width="154" height="94" transform="translate(147 282)" fill="#E0F0FF"/>
<path d="M174.136 345V316.632H164.296V311.4H190.36V316.632H180.568V345H174.136ZM194.809 345V310.44H201.289V324.408C202.089 323.128 203.145 322.12 204.457 321.384C205.801 320.616 207.353 320.232 209.113 320.232C211.129 320.232 212.825 320.664 214.201 321.528C215.577 322.36 216.617 323.576 217.321 325.176C218.025 326.776 218.377 328.76 218.377 331.128V345H211.945V331.704C211.945 329.784 211.545 328.312 210.745 327.288C209.945 326.232 208.681 325.704 206.953 325.704C205.897 325.704 204.937 325.96 204.073 326.472C203.209 326.984 202.521 327.736 202.009 328.728C201.529 329.688 201.289 330.84 201.289 332.184V345H194.809ZM232.641 345.576C230.625 345.576 228.961 345.256 227.648 344.616C226.337 343.944 225.361 343.064 224.721 341.976C224.113 340.856 223.809 339.624 223.809 338.28C223.809 336.808 224.177 335.512 224.913 334.392C225.681 333.272 226.817 332.392 228.321 331.752C229.857 331.112 231.777 330.792 234.081 330.792H240.081C240.081 329.608 239.921 328.632 239.601 327.864C239.281 327.064 238.785 326.472 238.113 326.088C237.441 325.704 236.545 325.512 235.424 325.512C234.209 325.512 233.169 325.784 232.305 326.328C231.473 326.84 230.961 327.64 230.769 328.728H224.48C224.641 327 225.201 325.512 226.161 324.264C227.153 322.984 228.449 321.992 230.049 321.288C231.681 320.584 233.489 320.232 235.473 320.232C237.745 320.232 239.713 320.616 241.377 321.384C243.041 322.152 244.321 323.256 245.217 324.696C246.113 326.136 246.561 327.912 246.561 330.024V345H241.089L240.369 341.304C240.017 341.944 239.601 342.52 239.121 343.032C238.641 343.544 238.081 343.992 237.441 344.376C236.801 344.76 236.081 345.048 235.281 345.24C234.481 345.464 233.601 345.576 232.641 345.576ZM234.177 340.584C235.009 340.584 235.745 340.44 236.385 340.152C237.057 339.832 237.633 339.416 238.113 338.904C238.593 338.36 238.961 337.752 239.217 337.08C239.505 336.376 239.697 335.624 239.793 334.824V334.776H234.849C233.857 334.776 233.041 334.904 232.401 335.16C231.793 335.384 231.345 335.72 231.057 336.168C230.769 336.616 230.625 337.128 230.625 337.704C230.625 338.344 230.769 338.872 231.057 339.288C231.345 339.704 231.761 340.024 232.305 340.248C232.849 340.472 233.473 340.584 234.177 340.584ZM263.22 345C261.524 345 260.036 344.744 258.756 344.232C257.508 343.688 256.532 342.808 255.828 341.592C255.124 340.344 254.772 338.648 254.772 336.504V326.232H250.644V320.808H254.772L255.492 314.232H261.252V320.808H267.636V326.232H261.252V336.6C261.252 337.688 261.492 338.44 261.972 338.856C262.452 339.272 263.268 339.48 264.42 339.48H267.588V345H263.22ZM274.578 334.056L273.858 311.4H280.818L280.098 334.056H274.578ZM277.362 345.24C276.178 345.24 275.202 344.888 274.434 344.184C273.698 343.448 273.33 342.552 273.33 341.496C273.33 340.44 273.698 339.56 274.434 338.856C275.202 338.12 276.178 337.752 277.362 337.752C278.546 337.752 279.506 338.12 280.242 338.856C280.978 339.56 281.346 340.44 281.346 341.496C281.346 342.552 280.978 343.448 280.242 344.184C279.506 344.888 278.546 345.24 277.362 345.24Z" fill="black"/>
<path d="M274.732 376.856C273.962 375.523 274.925 373.856 276.464 373.856L297.249 373.856C298.788 373.856 299.751 375.523 298.981 376.856L288.588 394.856C287.819 396.19 285.894 396.19 285.124 394.856L274.732 376.856Z" fill="#E0F0FF"/>
</svg>
